<svg width="40" height="30" viewBox="0 0 40 30" fill="none" xmlns="http://www.w3.org/2000/svg">
<g clip-path="url(#clip0_636_1083)">
<path d="M37 0H3C1.34315 0 0 1.34315 0 3C0 4.65685 1.34315 6 3 6H37C38.6569 6 40 4.65685 40 3C40 1.34315 38.6569 0 37 0Z" fill="#B7A9E0"/>
<path d="M37 12H3C1.34315 12 0 13.3431 0 15C0 16.6569 1.34315 18 3 18H37C38.6569 18 40 16.6569 40 15C40 13.3431 38.6569 12 37 12Z" fill="#B7A9E0"/>
<path d="M37 24H3C1.34315 24 0 25.3431 0 27C0 28.6569 1.34315 30 3 30H37C38.6569 30 40 28.6569 40 27C40 25.3431 38.6569 24 37 24Z" fill="#B7A9E0"/>
</g>
<defs>
<clipPath id="clip0_636_1083">
<rect width="40" height="30" fill="white"/>
</clipPath>
</defs>
</svg>
