<svg width="284" height="250" viewBox="0 0 284 250" fill="none" xmlns="http://www.w3.org/2000/svg">
<rect width="284" height="250" rx="20" fill="#898598"/>
<path d="M148.375 82.25L160.125 70.5C166 64.625 177.75 64.625 183.625 70.5L189.5 76.375C195.375 82.25 195.375 94 189.5 99.875L160.125 129.25C154.25 135.125 142.5 135.125 136.625 129.25M136.625 152.75L124.875 164.5C119 170.375 107.25 170.375 101.375 164.5L95.5 158.625C89.625 152.75 89.625 141 95.5 135.125L124.875 105.75C130.75 99.875 142.5 99.875 148.375 105.75" stroke="#413E48" stroke-width="7" stroke-linecap="round" stroke-linejoin="round"/>
<path d="M159.875 120.75C160.26 120.75 160.646 120.9 160.922 121.127L161.973 121.992L161.994 121.97L196.849 151.212L196.853 151.215C197.088 151.411 197.264 151.67 197.359 151.962C197.454 152.253 197.464 152.566 197.39 152.863C197.315 153.161 197.158 153.432 196.937 153.644C196.715 153.856 196.437 154 196.137 154.062L186.273 155.997L184.395 156.365L185.202 158.102L192.077 172.883L192.092 172.913L192.106 172.942C192.483 173.667 192.176 174.615 191.311 175.013L191.303 175.016L179.99 180.297L179.979 180.303L179.968 180.308C179.778 180.4 179.571 180.454 179.36 180.466C179.15 180.478 178.938 180.448 178.739 180.378C178.54 180.308 178.357 180.198 178.2 180.056C178.044 179.914 177.916 179.742 177.826 179.551L171.019 164.748L170.215 163L168.716 164.206L160.872 170.519L160.865 170.524L160.859 170.529C160.593 170.749 160.272 170.875 159.875 170.875C159.444 170.875 159.03 170.704 158.726 170.399C158.421 170.095 158.25 169.681 158.25 169.25V122.375C158.25 121.944 158.421 121.53 158.726 121.226C159.03 120.921 159.444 120.75 159.875 120.75Z" fill="#B7A9E0" stroke="#B7A9E0" stroke-width="3"/>
</svg>
