<svg width="294" height="64" viewBox="0 0 294 64" fill="none" xmlns="http://www.w3.org/2000/svg">
<path d="M72.783 54.6093C70.223 54.6093 67.983 53.9053 66.063 52.4973C64.175 51.0893 62.719 49.0893 61.695 46.4973C60.671 43.9053 60.159 40.8493 60.159 37.3293C60.159 35.2813 60.495 33.0893 61.167 30.7533C61.871 28.4173 62.863 26.4493 64.143 24.8493C65.455 23.2173 66.975 22.4013 68.703 22.4013C70.111 22.4013 71.279 22.9133 72.207 23.9373C73.135 24.9613 73.599 26.2253 73.599 27.7293C73.599 28.1773 73.487 28.7853 73.263 29.5533C73.071 30.2893 72.847 31.0573 72.591 31.8573C72.111 33.2333 71.743 34.4493 71.487 35.5053C71.231 36.5293 71.103 37.5213 71.103 38.4813C71.103 39.8893 71.311 40.9133 71.727 41.5533C72.143 42.1933 72.655 42.5133 73.263 42.5133C74.063 42.5133 74.623 42.1133 74.943 41.3133C75.295 40.4813 75.471 38.9613 75.471 36.7533L75.423 33.4413C75.423 30.8813 75.759 28.8493 76.431 27.3453C77.103 25.8093 78.447 25.0413 80.463 25.0413C81.967 25.0413 83.103 25.4573 83.871 26.2893C84.639 27.1213 85.135 28.1773 85.359 29.4573C85.583 30.7053 85.695 32.2253 85.695 34.0173V36.4653C85.695 38.8013 85.887 40.4653 86.271 41.4573C86.687 42.4173 87.343 42.8973 88.239 42.8973C88.847 42.8973 89.311 42.5933 89.631 41.9853C89.983 41.3453 90.159 40.4013 90.159 39.1533C90.159 38.2253 90.047 37.2973 89.823 36.3693C89.599 35.4413 89.247 34.2573 88.767 32.8173C88.351 31.4413 88.047 30.4173 87.855 29.7453C87.695 29.0413 87.615 28.3693 87.615 27.7293C87.615 26.2253 88.095 24.9773 89.055 23.9853C90.047 22.9933 91.199 22.4973 92.511 22.4973C94.399 22.4973 95.983 23.2973 97.263 24.8973C98.575 26.4653 99.551 28.4013 100.191 30.7053C100.831 33.0093 101.151 35.2173 101.151 37.3293C101.151 40.8493 100.639 43.9053 99.615 46.4973C98.591 49.0893 97.119 51.0893 95.199 52.4973C93.311 53.8733 91.087 54.5613 88.527 54.5613C87.119 54.5613 85.743 54.2413 84.399 53.6013C83.055 52.9613 81.807 52.0013 80.655 50.7213C79.503 52.0013 78.239 52.9773 76.863 53.6493C75.519 54.2893 74.159 54.6093 72.783 54.6093ZM109.181 31.3293C107.613 31.3293 106.285 30.7693 105.197 29.6493C104.109 28.4973 103.565 27.1053 103.565 25.4733C103.565 23.8733 104.109 22.5133 105.197 21.3933C106.285 20.2413 107.613 19.6653 109.181 19.6653C110.717 19.6653 112.029 20.2413 113.117 21.3933C114.237 22.5133 114.797 23.8733 114.797 25.4733C114.797 27.1053 114.237 28.4973 113.117 29.6493C112.029 30.7693 110.717 31.3293 109.181 31.3293ZM109.181 54.6093C107.869 54.6093 106.893 54.2413 106.253 53.5053C105.645 52.7373 105.229 51.6013 105.005 50.0973C104.813 48.5613 104.717 46.3853 104.717 43.5693C104.717 41.2013 104.829 39.3293 105.053 37.9533C105.309 36.5773 105.757 35.5533 106.397 34.8813C107.037 34.2093 107.965 33.8733 109.181 33.8733C110.493 33.8733 111.453 34.2573 112.061 35.0253C112.701 35.7613 113.117 36.8973 113.309 38.4333C113.533 39.9373 113.645 42.0973 113.645 44.9133C113.645 47.2813 113.517 49.1533 113.261 50.5293C113.037 51.9053 112.605 52.9293 111.965 53.6013C111.325 54.2733 110.397 54.6093 109.181 54.6093ZM125.484 54.6093C122.668 54.6093 120.428 54.1453 118.764 53.2173C117.1 52.2893 116.268 51.0893 116.268 49.6173C116.268 48.6573 116.588 47.9213 117.228 47.4093C117.9 46.8653 118.748 46.5933 119.772 46.5933C120.348 46.5933 120.812 46.6733 121.164 46.8333C121.516 46.9933 121.868 47.2173 122.22 47.5053C122.476 47.7293 122.684 47.8893 122.844 47.9853C123.036 48.0813 123.26 48.1293 123.516 48.1293C124.188 48.1293 124.524 47.8893 124.524 47.4093C124.524 46.9613 124.348 46.6253 123.996 46.4013C123.644 46.1453 123.036 45.8413 122.172 45.4893C121.372 45.1693 120.844 44.9453 120.588 44.8173C119.116 44.1133 118.028 43.2813 117.324 42.3213C116.62 41.3613 116.268 40.3373 116.268 39.2493C116.268 38.0333 116.7 36.8813 117.564 35.7933C118.46 34.6733 119.708 33.7773 121.308 33.1053C122.94 32.4013 124.812 32.0493 126.924 32.0493C128.748 32.0493 130.396 32.3053 131.868 32.8173C133.372 33.3293 134.556 34.0333 135.42 34.9293C136.284 35.7933 136.716 36.7533 136.716 37.8093C136.716 38.8013 136.396 39.5533 135.756 40.0653C135.148 40.5773 134.316 40.8333 133.26 40.8333C132.844 40.8333 132.508 40.8013 132.252 40.7373C132.028 40.6413 131.724 40.4973 131.34 40.3053C131.116 40.1773 130.876 40.0653 130.62 39.9693C130.396 39.8733 130.14 39.8253 129.852 39.8253C129.596 39.8253 129.372 39.9213 129.18 40.1133C128.988 40.2733 128.892 40.4813 128.892 40.7373C128.892 41.2173 129.244 41.5693 129.948 41.7933C131.804 42.4013 133.292 43.1693 134.412 44.0973C135.564 45.0253 136.14 46.3053 136.14 47.9373C136.14 50.0173 135.164 51.6493 133.212 52.8333C131.292 54.0173 128.716 54.6093 125.484 54.6093ZM144.388 54.6093C142.82 54.6093 141.62 54.0013 140.788 52.7853C139.956 51.5693 139.38 49.6973 139.06 47.1693C138.772 44.6413 138.628 41.1373 138.628 36.6573C138.628 32.9133 138.724 29.9853 138.916 27.8733C139.14 25.7613 139.636 24.0973 140.404 22.8813C141.172 21.6333 142.372 21.0093 144.004 21.0093C145.412 21.0093 146.468 21.4573 147.172 22.3533C147.876 23.2493 148.324 24.3693 148.516 25.7133C148.708 27.0573 148.804 28.7373 148.804 30.7533V32.9133C149.444 32.5933 150.004 32.3693 150.484 32.2413C150.996 32.1133 151.748 32.0493 152.74 32.0493C154.916 32.0493 156.788 32.6093 158.356 33.7293C159.924 34.8173 161.108 36.2893 161.908 38.1453C162.74 40.0013 163.156 42.0653 163.156 44.3373C163.156 47.2813 162.836 49.7133 162.196 51.6333C161.588 53.5213 160.372 54.4653 158.548 54.4653C157.268 54.4653 156.308 54.1773 155.668 53.6013C155.06 53.0253 154.66 52.2413 154.468 51.2493C154.308 50.2573 154.228 48.8973 154.228 47.1693C154.228 45.2813 154.02 43.8253 153.604 42.8013C153.22 41.7773 152.532 41.2653 151.54 41.2653C150.548 41.2653 149.828 41.7933 149.38 42.8493C148.964 43.8733 148.74 45.3133 148.708 47.1693C148.676 48.8973 148.564 50.2733 148.372 51.2973C148.212 52.3213 147.812 53.1373 147.172 53.7453C146.564 54.3213 145.636 54.6093 144.388 54.6093ZM181.998 54.5133C178.862 54.5133 176.046 53.8893 173.55 52.6413C171.086 51.3613 169.134 49.4733 167.694 46.9773C166.254 44.4493 165.534 41.3613 165.534 37.7133C165.534 34.7693 166.206 32.0173 167.55 29.4573C168.894 26.8973 170.75 24.8493 173.118 23.3133C175.486 21.7773 178.142 21.0093 181.086 21.0093C183.87 21.0093 186.35 21.5373 188.526 22.5933C190.702 23.6173 192.382 25.0253 193.566 26.8173C194.782 28.6093 195.39 30.6093 195.39 32.8173C195.39 34.2253 194.974 35.4413 194.142 36.4653C193.342 37.4893 192.19 38.0013 190.686 38.0013C189.566 38.0013 188.702 37.8093 188.094 37.4253C187.486 37.0413 186.846 36.4493 186.174 35.6493C185.502 34.8493 184.846 34.2573 184.206 33.8733C183.598 33.4573 182.702 33.2493 181.518 33.2493C180.014 33.2493 178.718 33.8253 177.63 34.9773C176.574 36.0973 176.046 37.4733 176.046 39.1053C176.046 40.8653 176.494 42.3533 177.39 43.5693C178.318 44.7533 179.566 45.3453 181.134 45.3453C182.35 45.3453 183.31 45.1693 184.014 44.8173C184.75 44.4653 185.518 43.9533 186.318 43.2813C186.99 42.7053 187.598 42.2733 188.142 41.9853C188.718 41.6973 189.422 41.5533 190.254 41.5533C191.534 41.5533 192.542 41.9533 193.278 42.7533C194.014 43.5213 194.382 44.5293 194.382 45.7773C194.382 47.2493 193.838 48.6573 192.75 50.0013C191.694 51.3453 190.222 52.4333 188.334 53.2653C186.446 54.0973 184.334 54.5133 181.998 54.5133ZM202.92 54.6093C200.872 54.6093 199.496 53.4093 198.792 51.0093C198.12 48.6093 197.784 45.2973 197.784 41.0733C197.784 39.1533 197.864 37.5533 198.024 36.2733C198.216 34.9613 198.648 33.8573 199.32 32.9613C200.024 32.0333 201.096 31.5693 202.536 31.5693C203.432 31.5693 204.216 31.7773 204.888 32.1933C205.592 32.6093 206.04 33.2013 206.232 33.9693C206.936 33.3293 207.848 32.8493 208.968 32.5293C210.088 32.2093 211.288 32.0493 212.568 32.0493C213.592 32.0493 214.632 32.3053 215.688 32.8173C216.776 33.3293 217.672 34.0333 218.376 34.9293C219.112 35.7933 219.48 36.7373 219.48 37.7613C219.48 38.7853 219.112 39.6973 218.376 40.4973C217.672 41.2653 216.728 41.6493 215.544 41.6493C215.16 41.6493 214.792 41.6013 214.44 41.5053C214.12 41.4093 213.832 41.3133 213.576 41.2173C212.936 40.9613 212.424 40.8333 212.04 40.8333C210.792 40.8333 209.688 41.3293 208.728 42.3213C207.8 43.2813 207.336 44.5293 207.336 46.0653C207.336 47.7613 207.272 49.1693 207.144 50.2893C207.016 51.4093 206.632 52.4173 205.992 53.3133C205.352 54.1773 204.328 54.6093 202.92 54.6093ZM229.065 54.6093C226.569 54.6093 224.521 54.0493 222.921 52.9293C221.321 51.7773 220.521 50.1293 220.521 47.9853C220.521 46.1293 221.337 44.6573 222.969 43.5693C224.601 42.4813 226.633 41.9373 229.065 41.9373C229.961 41.9373 230.793 42.0173 231.561 42.1773C232.361 42.3053 232.905 42.4653 233.193 42.6573C233.193 41.8573 232.857 41.2013 232.185 40.6893C231.513 40.1453 230.489 39.8733 229.113 39.8733C228.505 39.8733 228.009 39.9213 227.625 40.0173C227.241 40.1133 226.825 40.2573 226.377 40.4493C225.929 40.6413 225.513 40.7853 225.129 40.8813C224.777 40.9773 224.297 41.0253 223.689 41.0253C222.665 41.0253 221.865 40.7693 221.289 40.2573C220.713 39.7133 220.425 38.8973 220.425 37.8093C220.425 36.5613 220.873 35.5053 221.769 34.6413C222.697 33.7773 223.849 33.1373 225.225 32.7213C226.601 32.2733 227.977 32.0493 229.353 32.0493C232.073 32.0493 234.345 32.5613 236.169 33.5853C238.025 34.5773 239.385 35.9053 240.249 37.5693C241.145 39.2333 241.593 41.0733 241.593 43.0893C241.593 44.1773 241.497 45.1853 241.305 46.1133C241.145 47.0413 240.921 47.7613 240.633 48.2733C241.081 48.6573 241.417 49.1053 241.641 49.6173C241.897 50.1293 242.025 50.6573 242.025 51.2013C242.025 52.1293 241.705 52.9293 241.065 53.6013C240.457 54.2733 239.641 54.6093 238.617 54.6093C237.849 54.6093 237.225 54.4973 236.745 54.2733C236.265 54.0493 235.753 53.6973 235.209 53.2173C234.409 53.6973 233.529 54.0493 232.569 54.2733C231.641 54.4973 230.473 54.6093 229.065 54.6093ZM230.025 49.7613C230.697 49.7613 231.225 49.6173 231.609 49.3293C232.025 49.0413 232.233 48.6893 232.233 48.2733C232.233 47.8573 232.025 47.5053 231.609 47.2173C231.225 46.9293 230.697 46.7853 230.025 46.7853C229.353 46.7853 228.809 46.9293 228.393 47.2173C228.009 47.5053 227.817 47.8573 227.817 48.2733C227.817 48.6893 228.009 49.0413 228.393 49.3293C228.809 49.6173 229.353 49.7613 230.025 49.7613ZM258.091 35.5053C261.227 35.5693 263.483 35.9053 264.859 36.5133C266.267 37.1213 266.971 38.2893 266.971 40.0173C266.971 41.7133 266.251 42.8653 264.811 43.4733C263.403 44.0493 261.195 44.3693 258.187 44.4333L258.235 48.2253C258.267 48.8333 258.283 49.6813 258.283 50.7693C258.283 52.1453 257.899 53.1213 257.131 53.6973C256.363 54.2413 255.467 54.5133 254.443 54.5133C252.683 54.5133 251.403 53.6333 250.603 51.8733C249.803 50.1133 249.307 47.6013 249.115 44.3373C247.035 44.1773 245.483 43.7773 244.459 43.1373C243.467 42.4973 242.971 41.4573 242.971 40.0173C242.971 38.5773 243.467 37.5373 244.459 36.8973C245.483 36.2253 247.035 35.7933 249.115 35.6013C249.307 32.4973 249.771 29.8893 250.507 27.7773C251.243 25.6653 252.443 24.0173 254.107 22.8333C255.771 21.6173 258.011 21.0093 260.827 21.0093C262.587 21.0093 264.043 21.4253 265.195 22.2573C266.379 23.0573 266.971 24.2253 266.971 25.7613C266.971 27.3613 266.475 28.5773 265.483 29.4093C264.523 30.2093 263.195 30.7693 261.499 31.0893C260.379 31.3133 259.563 31.8093 259.051 32.5773C258.539 33.3133 258.219 34.2893 258.091 35.5053ZM292.552 33.8253C292.552 35.4893 291.768 36.6253 290.2 37.2333C288.632 37.8093 286.488 38.1133 283.768 38.1453C283.736 38.9453 283.72 40.2413 283.72 42.0333C283.72 43.8573 283.848 45.1533 284.104 45.9213C284.264 46.4653 284.504 46.8173 284.824 46.9773C285.176 47.1373 285.688 47.2493 286.36 47.3133C286.584 47.3453 286.824 47.3933 287.08 47.4573C287.368 47.4893 287.688 47.5373 288.04 47.6013C288.776 47.7613 289.352 48.1613 289.768 48.8013C290.184 49.4093 290.392 50.1933 290.392 51.1533C290.392 52.2413 289.832 53.0893 288.712 53.6973C287.592 54.3053 286.056 54.6093 284.104 54.6093C282.312 54.6093 280.6 54.0973 278.968 53.0733C277.336 52.0173 276.216 50.6093 275.608 48.8493C274.968 46.9613 274.648 43.3933 274.648 38.1453C272.408 38.0813 270.6 37.7933 269.224 37.2813C267.88 36.7373 267.208 35.7773 267.208 34.4013C267.208 32.6733 267.848 31.5213 269.128 30.9453C270.408 30.3373 272.248 30.0173 274.648 29.9853C274.744 27.4253 275.144 25.2973 275.848 23.6013C276.552 21.8733 277.816 21.0093 279.64 21.0093C281.496 21.0093 282.696 21.8093 283.24 23.4093C283.816 25.0093 284.072 27.2013 284.008 29.9853C286.92 29.9533 289.064 30.1773 290.44 30.6573C291.848 31.1373 292.552 32.1933 292.552 33.8253Z" fill="#544388"/>
<path d="M12.4493 45.896C12.4493 45.896 8.51222 59.2346 12.7144 62.0619C16.9166 64.8891 28.1419 55.3245 28.1419 55.3245C28.1419 55.3245 38.5365 63.8944 43.2047 60.7321C47.8729 57.5697 44.0248 43.5974 44.0248 43.5974C44.0248 43.5974 56.2505 35.2948 53.5766 29.9076C50.9027 24.5204 36.4385 27.0897 36.4385 27.0897C36.4385 27.0897 32.3925 12.908 26.8018 13.0895C20.6395 13.2896 17.8901 27.9973 17.8901 27.9973C17.8901 27.9973 3.37162 28.4048 1.19721 33.9285C-0.977202 39.4522 12.4493 45.896 12.4493 45.896Z" fill="#FFCF68"/>
<path d="M26.7714 12.114C28.5876 12.0551 30.1395 13.1618 31.3742 14.5432C32.6266 15.9445 33.7031 17.7926 34.5752 19.5887C35.452 21.3946 36.1462 23.1992 36.6204 24.5474C36.8231 25.1234 36.9859 25.6186 37.1067 25.9978C37.5015 25.9407 38.0221 25.8711 38.6355 25.8023C40.0564 25.6431 41.9876 25.4866 44.0122 25.5025C46.0269 25.5183 48.1858 25.7048 50.0397 26.2578C51.8725 26.8046 53.5864 27.765 54.4311 29.467C55.2986 31.2146 54.8988 33.1003 54.0649 34.7634C53.2273 36.4339 51.8677 38.0619 50.4774 39.4659C49.0779 40.8793 47.5995 42.1131 46.4759 42.9906C45.9252 43.4208 45.4565 43.7674 45.1206 44.0103C45.2179 44.4053 45.3482 44.9577 45.4893 45.6241C45.7818 47.0058 46.1243 48.8897 46.3183 50.8824C46.5113 52.8654 46.5626 55.0075 46.246 56.886C45.9339 58.7379 45.2294 60.5323 43.7348 61.5448C42.2547 62.5475 40.4193 62.558 38.6796 62.1753C36.9232 61.789 35.096 60.9671 33.4685 60.0735C31.8327 59.1754 30.3534 58.1795 29.2864 57.4113C28.8283 57.0816 28.4444 56.7922 28.1542 56.5687C27.839 56.8235 27.4108 57.1637 26.8959 57.5563C25.762 58.4209 24.1994 59.5488 22.4967 60.5903C20.8029 61.6263 18.9265 62.6041 17.1713 63.1372C15.4636 63.6559 13.6084 63.833 12.1866 62.8764C10.784 61.9327 10.1847 60.2097 9.95128 58.4758C9.71295 56.7052 9.82198 54.6758 10.056 52.7958C10.2912 50.9055 10.6597 49.1132 10.9681 47.7975C11.0979 47.2437 11.2178 46.7723 11.3131 46.4109C10.9528 46.2236 10.4757 45.9691 9.92183 45.6569C8.67631 44.9548 7.02822 43.9546 5.442 42.7712C3.86751 41.5966 2.29596 40.199 1.25466 38.6902C0.216586 37.1859 -0.409441 35.3884 0.308362 33.565C0.985304 31.8454 2.56359 30.6444 4.30836 29.7914C6.07775 28.9263 8.18421 28.3378 10.1718 27.9342C12.1673 27.5289 14.0868 27.3013 15.5039 27.1748C16.1554 27.1166 16.7032 27.0801 17.1062 27.057C17.1951 26.6514 17.3225 26.1004 17.4893 25.4495C17.8495 24.0432 18.3976 22.1565 19.1463 20.255C19.891 18.3638 20.8549 16.4036 22.0669 14.887C23.2717 13.3792 24.8326 12.177 26.7714 12.114ZM26.8323 14.065C25.6899 14.1021 24.5959 14.8135 23.5521 16.1197C22.5154 17.417 21.6368 19.1712 20.9238 20.9818C20.2149 22.7822 19.6903 24.5849 19.3425 25.9426C19.169 26.6199 19.0405 27.183 18.9555 27.5753C18.913 27.7713 18.8814 27.9246 18.8607 28.0277C18.8504 28.0793 18.8427 28.1183 18.8377 28.144C18.8352 28.1568 18.8334 28.1665 18.8323 28.1725L18.8308 28.1801C18.7465 28.6304 18.3661 28.9601 17.9164 28.9727C17.9162 28.9727 17.9158 28.973 17.9152 28.973C17.9139 28.973 17.9117 28.9731 17.9087 28.9732C17.9027 28.9734 17.8931 28.9738 17.8803 28.9742C17.8547 28.9751 17.8158 28.9764 17.7645 28.9785C17.6617 28.9827 17.5092 28.9895 17.3133 29.0002C16.9213 29.0216 16.3565 29.0583 15.6712 29.1195C14.298 29.2421 12.452 29.4618 10.5462 29.8489C8.63238 30.2375 6.70147 30.7866 5.13712 31.5514C3.54826 32.3283 2.49645 33.2496 2.08614 34.2918C1.71675 35.2302 1.95356 36.3096 2.82136 37.5671C3.68597 38.82 5.06333 40.0692 6.57365 41.196C8.0722 42.314 9.64485 43.27 10.8488 43.9487C11.4493 44.2873 11.9549 44.555 12.3089 44.7374C12.4857 44.8285 12.6246 44.8981 12.7184 44.9447C12.7653 44.9679 12.8009 44.9854 12.8243 44.9969C12.8361 45.0026 12.8448 45.0068 12.8503 45.0095C12.8531 45.0108 12.8551 45.0119 12.8563 45.0125L12.8575 45.013H12.8572C13.2865 45.219 13.5032 45.7141 13.3665 46.1772L13.366 46.1782C13.3657 46.1793 13.3651 46.1815 13.3643 46.1842C13.3627 46.1898 13.3603 46.1985 13.3569 46.2102C13.3501 46.2337 13.3398 46.2694 13.3264 46.3166C13.2997 46.4111 13.2606 46.5516 13.2121 46.7322C13.115 47.0937 12.9802 47.6155 12.8313 48.251C12.5327 49.5247 12.18 51.2438 11.9562 53.0415C11.7312 54.8496 11.6438 56.6851 11.8491 58.2105C12.0594 59.7728 12.5436 60.7773 13.2421 61.2473C13.9213 61.7043 15.0452 61.746 16.6241 61.2664C18.1555 60.8013 19.8733 59.9182 21.5111 58.9164C23.1398 57.9202 24.6462 56.8336 25.7484 55.9932C26.2984 55.5738 26.7456 55.2175 27.0542 54.9668C27.2085 54.8414 27.3282 54.7424 27.4086 54.6755C27.4487 54.642 27.4792 54.6164 27.4992 54.5996C27.5091 54.5912 27.5165 54.5849 27.5212 54.5809C27.5236 54.5789 27.5254 54.5775 27.5264 54.5766C27.5269 54.5762 27.5272 54.5758 27.5274 54.5756C27.8785 54.2764 28.3884 54.2722 28.7442 54.5655L28.7449 54.5663C28.7458 54.567 28.7473 54.5681 28.7494 54.5698C28.7536 54.5733 28.7603 54.5788 28.7694 54.5862C28.7876 54.601 28.8152 54.6235 28.8521 54.653C28.9258 54.7122 29.0361 54.7996 29.1787 54.9105C29.4641 55.1325 29.8787 55.4478 30.3915 55.8169C31.4194 56.5568 32.8306 57.5058 34.3769 58.3548C35.9316 59.2084 37.5782 59.9361 39.0837 60.2672C40.6058 60.602 41.8204 60.4976 42.6744 59.9192C43.5138 59.3505 44.0791 58.2126 44.3584 56.5554C44.6332 54.9247 44.5978 52.9807 44.4123 51.0753C44.2278 49.1798 43.9001 47.3729 43.617 46.0359C43.4757 45.3688 43.3463 44.8217 43.2525 44.4428C43.2056 44.2534 43.1676 44.1062 43.1416 44.0072C43.1286 43.9578 43.1188 43.9204 43.1122 43.8958C43.1089 43.8835 43.1063 43.8743 43.1047 43.8685C43.104 43.8657 43.1033 43.8637 43.103 43.8625L43.1028 43.8612C42.9976 43.4796 43.1297 43.0739 43.4311 42.8315L43.4937 42.7851C43.4939 42.785 43.4943 42.7849 43.4947 42.7846C43.4958 42.7839 43.4975 42.7825 43.4999 42.7808C43.5049 42.7774 43.5128 42.772 43.5234 42.7647C43.5447 42.75 43.5771 42.7276 43.6197 42.6978C43.7049 42.6383 43.8311 42.5495 43.9914 42.4338C44.3122 42.2022 44.7693 41.8639 45.3106 41.4411C46.3958 40.5936 47.8066 39.415 49.1292 38.0793C50.4611 36.7343 51.6567 35.2766 52.3594 33.8752C53.0657 32.4664 53.1914 31.2942 52.7219 30.3482C52.2298 29.3566 51.1329 28.618 49.5017 28.1314C47.8915 27.651 45.9328 27.4697 43.9973 27.4545C42.0717 27.4393 40.2196 27.5886 38.8449 27.7427C38.1589 27.8196 37.5948 27.8973 37.2037 27.9556C37.0083 27.9847 36.8561 28.0089 36.7538 28.0257C36.7028 28.0341 36.6642 28.0408 36.6388 28.0451C36.626 28.0473 36.6165 28.0489 36.6105 28.0499C36.6076 28.0504 36.6054 28.051 36.6041 28.0512C36.6035 28.0513 36.6031 28.0511 36.6029 28.0512C36.122 28.1366 35.655 27.8398 35.5187 27.3622C35.5187 27.362 35.5186 27.3614 35.5185 27.3609C35.5181 27.3597 35.5176 27.3575 35.5168 27.3546C35.5151 27.3487 35.5122 27.3395 35.5086 27.3271C35.5013 27.3022 35.4903 27.2644 35.4754 27.2146C35.4457 27.1149 35.4008 26.9671 35.3416 26.7781C35.2229 26.3998 35.0465 25.8573 34.8174 25.2061C34.3583 23.901 33.6918 22.1712 32.8583 20.4545C32.02 18.7279 31.0365 17.0644 29.958 15.8577C28.8617 14.6311 27.8113 14.0333 26.8323 14.065Z" fill="black"/>
<path d="M22.7517 36.5886C22.7517 38.0149 21.6171 39.1711 20.2176 39.1711C18.8181 39.1711 17.6836 38.0149 17.6836 36.5886C17.6836 35.1623 18.8181 34.0061 20.2176 34.0061C21.6171 34.0061 22.7517 35.1623 22.7517 36.5886Z" fill="black"/>
<path d="M37.1955 36.5886C37.1955 38.0149 36.061 39.1711 34.6615 39.1711C33.262 39.1711 32.1274 38.0149 32.1274 36.5886C32.1274 35.1623 33.262 34.0061 34.6615 34.0061C36.061 34.0061 37.1955 35.1623 37.1955 36.5886Z" fill="black"/>
<path d="M40.3319 26.8298C31.4025 33.3157 19.9551 31.4149 14.2516 27.4366L27.6123 1.9376L40.3319 26.8298Z" fill="#544388"/>
<path d="M18.1827 19.0661C18.5817 18.7766 19.1354 18.8714 19.4195 19.278C21.2043 21.8321 27.8936 27.0858 39.768 25.8757C40.2554 25.8261 40.69 26.1884 40.7388 26.685C40.7875 27.1817 40.432 27.6247 39.9447 27.6744C27.4925 28.9434 20.1602 23.454 17.9749 20.3266C17.6907 19.92 17.7838 19.3557 18.1827 19.0661ZM21.9575 11.08C22.3458 10.7757 22.9027 10.8498 23.2013 11.2455C24.7939 13.3555 29.5465 17.5116 35.6336 17.2208C36.1229 17.1974 36.5382 17.5827 36.5611 18.0813C36.584 18.5799 36.206 19.0031 35.7168 19.0265C28.8298 19.3555 23.5813 14.7139 21.7952 12.3476C21.4966 11.9519 21.5693 11.3844 21.9575 11.08Z" fill="black"/>
<path d="M41.4747 27.1095L40.8466 27.5659C31.565 34.3077 19.708 32.3378 13.7506 28.1824L13.095 27.7252L27.6222 5.39313e-07L41.4747 27.1095ZM15.4189 27.1272C20.9199 30.5331 31.043 32.0038 39.1822 26.5369L27.6022 3.87518L15.4189 27.1272Z" fill="black"/>
<path d="M31.2472 42.9223C31.5935 42.5693 32.1549 42.5693 32.5013 42.9223C32.8477 43.2753 32.8477 43.8474 32.5013 44.2004C30.5672 46.1715 28.4412 46.6188 26.5795 46.3202C24.7694 46.0298 23.2563 45.0465 22.3961 44.2186C22.04 43.8758 22.0239 43.3036 22.3602 42.9407C22.6966 42.5778 23.258 42.5614 23.6141 42.9041C24.2744 43.5396 25.4727 44.3125 26.8554 44.5343C28.1865 44.7479 29.735 44.4634 31.2472 42.9223Z" fill="black"/>
</svg>
