<svg width="57" height="57" viewBox="0 0 57 57" fill="none" xmlns="http://www.w3.org/2000/svg">
<path d="M52.25 0H4.75C3.49022 0 2.28204 0.500445 1.39124 1.39124C0.500445 2.28204 0 3.49022 0 4.75V52.25C0 53.5098 0.500445 54.718 1.39124 55.6088C2.28204 56.4996 3.49022 57 4.75 57H52.25C53.5098 57 54.718 56.4996 55.6088 55.6088C56.4996 54.718 57 53.5098 57 52.25V4.75C57 3.49022 56.4996 2.28204 55.6088 1.39124C54.718 0.500445 53.5098 0 52.25 0ZM11.875 45.125H9.5C8.87011 45.125 8.26602 44.8748 7.82062 44.4294C7.37522 43.984 7.125 43.3799 7.125 42.75C7.125 42.1201 7.37522 41.516 7.82062 41.0706C8.26602 40.6252 8.87011 40.375 9.5 40.375H11.875C12.5049 40.375 13.109 40.6252 13.5544 41.0706C13.9998 41.516 14.25 42.1201 14.25 42.75C14.25 43.3799 13.9998 43.984 13.5544 44.4294C13.109 44.8748 12.5049 45.125 11.875 45.125ZM11.875 30.875H9.5C8.87011 30.875 8.26602 30.6248 7.82062 30.1794C7.37522 29.734 7.125 29.1299 7.125 28.5C7.125 27.8701 7.37522 27.266 7.82062 26.8206C8.26602 26.3752 8.87011 26.125 9.5 26.125H11.875C12.5049 26.125 13.109 26.3752 13.5544 26.8206C13.9998 27.266 14.25 27.8701 14.25 28.5C14.25 29.1299 13.9998 29.734 13.5544 30.1794C13.109 30.6248 12.5049 30.875 11.875 30.875ZM11.875 16.625H9.5C8.87011 16.625 8.26602 16.3748 7.82062 15.9294C7.37522 15.484 7.125 14.8799 7.125 14.25C7.125 13.6201 7.37522 13.016 7.82062 12.5706C8.26602 12.1252 8.87011 11.875 9.5 11.875H11.875C12.5049 11.875 13.109 12.1252 13.5544 12.5706C13.9998 13.016 14.25 13.6201 14.25 14.25C14.25 14.8799 13.9998 15.484 13.5544 15.9294C13.109 16.3748 12.5049 16.625 11.875 16.625ZM47.5 45.125H21.375C20.7451 45.125 20.141 44.8748 19.6956 44.4294C19.2502 43.984 19 43.3799 19 42.75C19 42.1201 19.2502 41.516 19.6956 41.0706C20.141 40.6252 20.7451 40.375 21.375 40.375H47.5C48.1299 40.375 48.734 40.6252 49.1794 41.0706C49.6248 41.516 49.875 42.1201 49.875 42.75C49.875 43.3799 49.6248 43.984 49.1794 44.4294C48.734 44.8748 48.1299 45.125 47.5 45.125ZM47.5 30.875H21.375C20.7451 30.875 20.141 30.6248 19.6956 30.1794C19.2502 29.734 19 29.1299 19 28.5C19 27.8701 19.2502 27.266 19.6956 26.8206C20.141 26.3752 20.7451 26.125 21.375 26.125H47.5C48.1299 26.125 48.734 26.3752 49.1794 26.8206C49.6248 27.266 49.875 27.8701 49.875 28.5C49.875 29.1299 49.6248 29.734 49.1794 30.1794C48.734 30.6248 48.1299 30.875 47.5 30.875ZM47.5 16.625H21.375C20.7451 16.625 20.141 16.3748 19.6956 15.9294C19.2502 15.484 19 14.8799 19 14.25C19 13.6201 19.2502 13.016 19.6956 12.5706C20.141 12.1252 20.7451 11.875 21.375 11.875H47.5C48.1299 11.875 48.734 12.1252 49.1794 12.5706C49.6248 13.016 49.875 13.6201 49.875 14.25C49.875 14.8799 49.6248 15.484 49.1794 15.9294C48.734 16.3748 48.1299 16.625 47.5 16.625Z" fill="#544388"/>
</svg>
