<svg width="5" height="9" viewBox="0 0 5 9" fill="none" xmlns="http://www.w3.org/2000/svg">
<path d="M0.18279 0.182992C0.0656204 0.300196 -0.000201762 0.459139 -0.000201762 0.624866C-0.000201762 0.790594 0.0656204 0.949537 0.18279 1.06674L3.27654 4.16049L0.18279 7.25424C0.0689411 7.37212 0.00594461 7.52999 0.00736862 7.69387C0.00879264 7.85774 0.0745231 8.0145 0.190403 8.13038C0.306283 8.24626 0.463041 8.31199 0.626914 8.31341C0.790787 8.31484 0.948663 8.25184 1.06654 8.13799L4.60216 4.60237C4.71933 4.48516 4.78516 4.32622 4.78516 4.16049C4.78516 3.99476 4.71933 3.83582 4.60216 3.71862L1.06654 0.182992C0.949335 0.0658221 0.790392 0 0.624665 0C0.458937 0 0.299995 0.0658221 0.18279 0.182992Z" fill="black"/>
</svg>
