<svg width="33" height="32" viewBox="0 0 33 32" fill="none" xmlns="http://www.w3.org/2000/svg">
<path d="M2.34462 22.1093C2.60889 21.1969 3.10521 20.3658 3.80133 19.6909L15.4808 8.36754L17.6659 6.2491L24.3693 12.7482L26.5544 14.8666L24.3693 16.9851L12.6898 28.3084C12.0002 28.9771 11.1365 29.4645 10.1954 29.7207L1.95789 31.9454C1.4229 32.0891 0.842793 31.9454 0.44961 31.558C0.0564267 31.1705 -0.0918226 30.6143 0.0564267 30.0957L2.34462 22.1093ZM5.92839 21.8781C5.64478 22.1718 5.43852 22.528 5.32894 22.9154L3.77555 28.3459L9.3768 26.8399C9.78932 26.7274 10.1632 26.5212 10.4726 26.2337L5.92194 21.8781H5.92839ZM28.7459 12.7482L22.0424 6.2491L19.8509 4.13065L22.745 1.32481C23.6152 0.474932 24.8012 0 26.0387 0C27.2763 0 28.4623 0.474932 29.3324 1.32481L31.6335 3.55574C32.5101 4.40561 33 5.55545 33 6.74903C33 7.94261 32.5101 9.09869 31.6335 9.94232L28.7394 12.7482H28.7459Z" fill="#544388"/>
</svg>
