<svg width="33" height="32" viewBox="0 0 33 32" fill="none" xmlns="http://www.w3.org/2000/svg">
<path d="M32.3239 11.762C32.2964 12.2445 32.1499 12.7133 31.8968 13.1287C31.658 13.541 31.3318 13.899 30.9401 14.1787C30.7695 14.2996 30.5691 14.3744 30.3593 14.3954L27.3526 14.7787C27.0191 14.8341 26.7099 14.9849 26.4643 15.212C25.5589 16.062 24.6364 16.8787 23.3722 18.1787L21.9201 19.5787C21.7313 19.7699 21.596 20.0052 21.5272 20.262L19.9214 26.562C19.9282 26.6285 19.9282 26.6955 19.9214 26.762C19.6989 27.2505 19.3593 27.6797 18.9311 28.0132C18.503 28.3468 17.9989 28.5751 17.4614 28.6787H16.8464C16.5116 28.6756 16.1786 28.6308 15.8555 28.5453C15.3322 28.3888 14.8568 28.1082 14.4718 27.7287L10.1326 23.512L2.15471 31.2953C1.91182 31.5161 1.59058 31.6364 1.25865 31.6306C0.926716 31.6249 0.610017 31.4937 0.37527 31.2647C0.140522 31.0357 0.00605615 30.7267 0.000199614 30.4029C-0.00565692 30.0791 0.117553 29.7656 0.343874 29.5287L8.32179 21.7454L4.05096 17.5787C3.66906 17.194 3.38779 16.7252 3.23096 16.212C3.05746 15.7013 3.02796 15.1544 3.14554 14.6287C3.24589 14.1105 3.47462 13.6242 3.81179 13.212C4.15328 12.7943 4.59271 12.4627 5.09304 12.2454H5.29804L11.6872 10.5787C11.9702 10.505 12.2291 10.3615 12.4389 10.162C14.8135 7.87869 15.6335 7.07869 16.9318 5.71202C17.1528 5.48373 17.2908 5.19095 17.3247 4.87869L17.7347 1.92869C17.7532 1.71821 17.83 1.51659 17.9568 1.34535C18.3938 0.771527 19.0083 0.349969 19.7097 0.142899C20.411 -0.0641704 21.162 -0.0457814 21.8518 0.195353C22.3136 0.361487 22.7332 0.62301 23.0818 0.962019L31.4185 9.12869C31.7599 9.46681 32.0235 9.8722 32.1914 10.3177C32.3593 10.7632 32.4278 11.2386 32.3922 11.712L32.3239 11.762Z" fill="#544388"/>
</svg>
